<svg width="646" height="89" viewBox="0 0 646 89" xmlns="http://www.w3.org/2000/svg">
    <g fill="none" fill-rule="evenodd">
        <path fill-opacity=".9" fill="#FF6620" d="M64.042 88.083L40 64.04 64.042 40l24.04 24.04z"></path>
        <path fill-opacity=".5" fill="#006084" d="M24.042 48.083L0 24.04 24.042 0l24.04 24.04z"></path>
        <path fill-opacity=".9" fill="#00A485" d="M64.042 48.083L40 24.04 64.042 0l24.04 24.04z"></path>
        <path fill-opacity=".7" fill="#002F2F" d="M24.042 88.083L0 64.04 24.042 40l24.04 24.04z"></path>
        <path d="M643.76 41.66V15.146L631.7 35.83h-1.377l-12.058-20.684V41.66h-2.197V11h2.197l12.747 21.937L643.76 11h2.195v30.66h-2.196zm-72.09-27.983l-6.805 16.064h13.48l-6.676-16.063zM557.76 41.66L570.764 11h1.808l13.006 30.66h-2.37l-4.263-10.105h-14.6l-4.262 10.105h-2.326zm-29.552-1.987v1.987h-20.37V11h19.982v1.986h-17.785v12.048h15.546v1.9h-15.545v12.74h18.173zm-50.032-26.687H466.98V41.66h-2.197V12.986h-11.196V11h24.59v1.986zM398.704 11l11.67 27.896L422.002 11h2.325l-12.962 30.66h-1.98L396.42 11h2.284zM367 39.673v1.987h-20.37V11h19.98v1.986h-17.784v12.048h15.546v1.9h-15.546v12.74H367zm-52.52-13.386c0-1.93-.273-3.707-.82-5.333-.544-1.627-1.34-3.03-2.39-4.21-1.047-1.18-2.33-2.102-3.853-2.764-1.522-.663-3.273-.994-5.254-.994h-7.967v26.687h7.967c2.01 0 3.783-.338 5.32-1.015 1.535-.676 2.82-1.62 3.853-2.828 1.033-1.21 1.816-2.627 2.347-4.254.53-1.626.797-3.39.797-5.29zM292 41.66V11h10.163c2.412 0 4.53.403 6.352 1.21 1.823.805 3.338 1.9 4.543 3.28 1.206 1.383 2.11 3.002 2.713 4.86.604 1.856.906 3.835.906 5.937 0 2.33-.338 4.44-1.012 6.326-.675 1.885-1.644 3.498-2.907 4.836-1.263 1.338-2.792 2.374-4.586 3.108-1.794.735-3.796 1.102-6.007 1.102H292zM232.345 41.696h-2.624l-11.778-16.21-4.094 3.613v12.596h-2.142V11h2.142v15.957l3.4-3.4L229.28 11h2.73l-12.577 12.976 12.912 17.72zm-59.84 0h-2.162v-28.68h-9.974V11h22.108v2.016h-9.973v28.68zm-44.505 0V11h2.142v30.696H128z" fill="#181715"></path>
        <path d="M135.984 77.026H127.9V62.233h8.084v.95h-7.052v5.596h6.658v.95h-6.658v6.344h7.052v.952zm24.067 0h-1.04l-8.763-13.134h-.08c.08 1.565.12 2.746.12 3.542v9.592h-.99V62.233h1.03l8.753 13.113h.06c-.06-1.214-.09-2.368-.09-3.46v-9.653h1v14.793zm38.736-7.538c0 2.482-.65 4.36-1.953 5.63-1.302 1.272-3.214 1.908-5.737 1.908h-3.54V62.233h3.995c2.362 0 4.158.617 5.39 1.85 1.23 1.236 1.846 3.037 1.846 5.405zm-1.123.04c0-2.118-.538-3.712-1.614-4.78-1.077-1.07-2.657-1.605-4.74-1.605h-2.723v12.972h2.448c4.42 0 6.628-2.196 6.628-6.587zm22.57 7.498h-8.085V62.233h8.084v.95h-7.052v5.596h6.658v.95h-6.658v6.344h7.052v.952zm13.31 0V62.233h1.032v13.82h7.053v.973h-8.085zm45.057-5.22h-6.01l-2.064 5.22h-1.144l5.95-14.854h.657l5.828 14.854h-1.164l-2.054-5.22zm-5.636-.932h5.292l-2.014-5.333c-.168-.417-.37-.997-.607-1.74-.182.65-.38 1.235-.597 1.762l-2.074 5.312zm21.942 6.152h-1.032V62.233h8.105v.95h-7.074v6.274h6.678v.96h-6.678v6.61zm44.788-5.22h-6.01l-2.064 5.22h-1.144l5.95-14.854h.658l5.828 14.854h-1.164l-2.054-5.22zm-5.636-.932h5.292l-2.014-5.333c-.168-.417-.37-.997-.607-1.74-.183.65-.382 1.235-.598 1.762l-2.074 5.312zm28.033.93h-6.01l-2.063 5.222h-1.143l5.95-14.854h.657l5.83 14.854h-1.165l-2.054-5.22zm-5.635-.93h5.292l-2.013-5.333c-.17-.417-.37-.997-.607-1.74-.182.65-.38 1.235-.597 1.762l-2.075 5.312zm21.942-.294v6.446h-1.032V62.233h3.52c1.836 0 3.192.34 4.07 1.017.876.678 1.314 1.698 1.314 3.06 0 .992-.262 1.828-.785 2.51-.523.68-1.317 1.17-2.383 1.467l4.017 6.74h-1.235l-3.815-6.447h-3.673zm0-.89h2.823c1.248 0 2.216-.278 2.904-.835.688-.556 1.032-1.378 1.032-2.464 0-1.125-.337-1.945-1.01-2.457-.676-.513-1.775-.77-3.3-.77h-2.45v6.527zm31.96 7.336h-1.043V69.75h-8.64v7.276h-1.033V62.233h1.033V68.8h8.64v-6.567h1.043v14.793zm25.027-14.793v9.572c0 1.7-.492 3.028-1.477 3.986-.985.96-2.357 1.438-4.118 1.438-1.714 0-3.052-.48-4.013-1.442-.96-.96-1.442-2.302-1.442-4.022v-9.53h1.043v9.57c0 1.424.394 2.532 1.183 3.324.79.793 1.907 1.19 3.35 1.19 1.41 0 2.503-.39 3.28-1.17.775-.778 1.162-1.86 1.162-3.242v-9.673h1.032zM457.54 73.21c0 1.235-.455 2.214-1.362 2.935-.907.722-2.113 1.083-3.617 1.083-1.807 0-3.193-.2-4.158-.597V75.6c1.066.45 2.425.677 4.078.677 1.214 0 2.177-.278 2.89-.835.71-.556 1.066-1.287 1.066-2.19 0-.56-.118-1.024-.354-1.392-.236-.367-.62-.703-1.154-1.007-.532-.303-1.315-.63-2.347-.98-1.51-.52-2.554-1.082-3.13-1.686-.577-.603-.866-1.408-.866-2.413 0-1.106.434-2.008 1.3-2.707.867-.698 1.982-1.047 3.345-1.047 1.388 0 2.693.263 3.914.79l-.374.89c-1.228-.513-2.4-.77-3.52-.77-1.094 0-1.964.254-2.612.76-.647.506-.97 1.194-.97 2.064 0 .546.098.995.297 1.346.2.35.525.666.977.946.452.28 1.227.615 2.327 1.006 1.153.398 2.02.785 2.6 1.16.58.373 1.003.798 1.27 1.274.266.475.4 1.05.4 1.725zm37.382 3.816h-1.264l-5.677-7.812-1.972 1.74v6.072h-1.032V62.233h1.032v7.69l1.64-1.64 5.797-6.05h1.315l-6.06 6.253 6.222 8.54zM519 69.61c0 2.346-.588 4.203-1.76 5.57-1.175 1.365-2.794 2.048-4.858 2.048-2.057 0-3.673-.683-4.847-2.05-1.173-1.365-1.76-3.228-1.76-5.59 0-2.353.592-4.207 1.775-5.56 1.184-1.352 2.802-2.028 4.852-2.028 2.064 0 3.68.68 4.847 2.04 1.166 1.358 1.75 3.215 1.75 5.57zm-12.102 0c0 2.117.472 3.754 1.416 4.91.945 1.158 2.3 1.737 4.068 1.737 1.78 0 3.142-.574 4.083-1.72.94-1.147 1.41-2.79 1.41-4.928 0-2.133-.47-3.767-1.41-4.903-.94-1.137-2.296-1.705-4.063-1.705-1.76 0-3.118.573-4.072 1.72-.955 1.147-1.432 2.776-1.432 4.887zm31.97 7.416l-5.515-13.66h-.08c.053.836.08 1.693.08 2.57v11.09h-.992V62.233h1.6l5.24 13.012h.062l5.24-13.012h1.56v14.793h-1.043v-11.21c0-.784.04-1.593.12-2.43h-.08l-5.535 13.64h-.658zm27.84 0l-5.515-13.66h-.08c.053.836.08 1.693.08 2.57v11.09h-.99V62.233h1.598l5.242 13.012h.06l5.242-13.012h1.558v14.793h-1.042v-11.21c0-.784.04-1.593.12-2.43h-.08l-5.534 13.64h-.658zm32.212-14.793v9.572c0 1.7-.493 3.028-1.477 3.986-.985.96-2.358 1.438-4.12 1.438-1.712 0-3.05-.48-4.01-1.442-.962-.96-1.442-2.302-1.442-4.022v-9.53h1.043v9.57c0 1.424.395 2.532 1.184 3.324.79.793 1.905 1.19 3.35 1.19 1.41 0 2.5-.39 3.277-1.17.776-.778 1.164-1.86 1.164-3.242v-9.673h1.032zm24.745 14.793h-1.043l-8.762-13.134h-.08c.08 1.565.12 2.746.12 3.542v9.592h-.99V62.233h1.03l8.753 13.113h.06c-.06-1.214-.09-2.368-.09-3.46v-9.653h1.002v14.793zm22.235 0h-8.084V62.233h8.084v.95h-7.052v5.596h6.657v.95h-6.657v6.344h7.052v.952z" fill="#6F6F6F"></path>
    </g>
</svg>